<svg width="500" height="500" viewBox="0 0 500 500" fill="none" xmlns="http://www.w3.org/2000/svg">
<path d="M367.214 276.667C371.599 275.095 375.016 274.566 379.638 274.612C391.205 275.559 394.043 290.393 391.657 299.486C390.404 309.109 383.897 317.553 376.504 323.227C368.126 329.655 354.3 332.818 347.329 322.748C347.069 322.372 346.942 322.089 346.757 321.676C343.845 316.1 343.808 308.972 344.665 302.895C345.69 297.291 349.234 291.839 352.962 287.642C356.11 283.304 362.296 278.85 367.214 276.667Z" fill="#B51783"/>
<path d="M419.803 276.482C423.335 274.379 426.214 273.423 430.248 272.876C440.491 272.323 447.298 276.324 448.58 295.047C449.238 304.648 445.105 313.765 439.698 320.277C433.571 327.655 418.756 333.218 410.858 324.232C410.563 323.897 410.401 323.636 410.165 323.254C406.616 318.157 405.29 311.17 404.933 305.099C404.807 299.47 406.902 293.668 409.387 289.074C411.34 284.415 415.917 279.254 419.803 276.482Z" fill="#B51783"/>
<path d="M403.214 149.934C416.113 146.67 424.668 152.222 424.506 166.119C424.523 172.98 423.138 176.793 420.261 183.071C414.837 194.101 406.857 202.034 394.549 204.059C386.904 205.17 381.546 201.814 378.187 195.069C377.607 193.435 377.194 192.441 376.967 190.694C375.206 179.873 378.95 172.209 384.9 163.473C388.382 158.613 394 153.387 399.64 151.205L403.214 149.934Z" fill="#B51783"/>
<path d="M449.971 139.371C461.169 133.343 470.442 136.831 473.616 150.349C475.273 157.001 474.899 161.008 473.729 167.736C471.33 179.639 465.817 189.106 454.871 193.801C448.036 196.575 442.258 194.508 437.525 188.711C436.595 187.253 435.974 186.381 435.345 184.736C431.121 174.629 432.765 166.364 436.201 156.569C438.273 151.082 442.24 144.765 446.955 141.397L449.971 139.371Z" fill="#860080"/>
<path d="M387.887 213.189C393.205 212.229 398.689 213.199 402.484 217.262C412.279 229.888 403.206 250.548 391.305 258.394C383.682 263.419 380.316 265.613 370.945 265.642C364.233 265.066 359.845 262.086 358.389 255.209C357.435 248.793 358.159 238.081 362.257 232.76C367.041 223.338 377.203 214.69 387.887 213.189Z" fill="#B51783"/>
<path d="M438.054 207.726C442.132 206.01 446.688 206.162 450.449 209.592C460.538 220.541 456.988 242.114 448.884 251.539C443.692 257.575 441.395 260.217 433.911 261.611C428.444 262.024 424.404 259.743 422.009 253.214C420.097 247.064 418.757 236.458 421.079 230.645C423.214 220.712 429.786 210.754 438.054 207.726Z" fill="#860080"/>
<path d="M389.806 116.521C392.164 106.345 400.349 95.9981 409.027 90.431C415.418 86.3311 427.706 85.2151 431.961 92.8344C434.901 98.0987 434.854 105.627 433.377 111.376C432.791 113.628 430.23 119.986 428.833 121.504C427.341 123.754 425.258 127.09 423.391 128.907C419.12 134.634 412.496 138.464 405.445 139.645C399.403 140.657 391.496 138.676 389.817 131.919C388.077 127.85 388.689 120.701 389.806 116.521Z" fill="#860080"/>
<path d="M447.85 109.64C446.925 99.7746 451.775 87.6376 458.661 79.5521C463.732 73.5976 475.666 68.1387 482.381 73.335C487.021 76.9251 489.403 83.6064 489.78 89.2324C489.92 91.4395 489.41 97.9993 488.502 99.851C487.735 102.386 486.728 106.096 485.446 108.384C483.021 115.007 477.629 120.808 470.956 124.419C465.239 127.513 456.688 128.636 452.829 123.266C449.774 120.297 448.08 113.747 447.85 109.64Z" fill="#860080"/>
<path d="M368.2 152.743C366.722 155.615 364.528 157.881 362.602 160.447C354.864 170.753 328.149 181.125 327.664 159.767C327.439 149.871 333.198 139.494 339.861 132.261C346.846 124.677 360.211 114.803 369.922 124.069C377.056 132.169 373.402 144.602 368.2 152.743Z" fill="#860080"/>
<path d="M311.187 290.724C313.407 290.302 315.535 290.385 317.774 290.476C321.262 291.217 324.653 292.579 326.628 295.731C329.147 300.605 329.646 306.274 328.018 311.512C327.198 314.633 325.222 318.602 323.308 321.174C321.879 324.176 317.989 327.578 315.365 329.546C308.459 334.788 301.249 338.07 292.428 336.771C283.568 335.467 279.091 328.318 280.643 319.749C280.891 315.224 284.411 308.471 287.364 304.946C292.302 297.778 302.676 292.149 311.187 290.724Z" fill="#E84A64"/>
<path d="M333.955 236.343C362.229 234.592 344.688 276.575 317.42 281.397C315.245 281.694 309.774 279.041 307.718 278.642C305.93 277.355 303.429 271.982 303.246 270.259C301.612 254.874 320.625 238.619 333.955 236.343Z" fill="#B51783"/>
<path d="M317.121 216.6C317.065 215.497 317.085 214.388 317.03 213.3C316.184 196.873 346.32 168.275 360.881 184.033C368.903 196.303 355.563 217.125 343.794 222.68C341.873 224.136 338.664 225.407 336.299 225.964C327.338 228.074 319.388 226.832 317.121 216.6Z" fill="#B51783"/>
<path d="M307.766 154.252C325.03 153.154 322.545 172.633 315.764 182.209C309.247 191.411 300.093 199.897 288.722 202.201C259.879 205.161 282.032 158.421 307.766 154.252Z" fill="#860080"/>
<path d="M336.542 344.506C341.462 342.812 348.717 342.287 352.884 345.923C357.825 349.453 357.69 354.494 357.247 359.875C356.753 363.105 356.085 364.961 354.873 367.488C353.263 370.843 353.619 369.692 351.758 372.248C345.371 381.023 330.618 390.162 320.16 383.192C317.252 381.249 315.285 378.183 314.732 374.732C313.972 370.216 315.483 363.852 318.076 360.168C320.952 353.874 329.759 345.897 336.542 344.506Z" fill="#F2814F"/>
<path d="M379.079 346.095C382.87 343.257 389.003 340.944 393.608 343.354C398.852 345.471 400.12 350.291 401.216 355.51C401.675 358.7 401.607 360.629 401.252 363.332C400.781 366.919 400.773 365.737 399.865 368.629C396.75 378.557 386.496 390.923 375.534 386.92C372.483 385.801 369.939 383.382 368.513 380.244C366.615 376.147 366.174 369.727 367.405 365.581C368.164 358.886 373.593 349.111 379.079 346.095Z" fill="#F2814F"/>
<path d="M420.228 346.233C423.101 342.933 428.207 339.814 432.877 341.505C438.069 342.82 440.193 347.329 442.241 352.252C443.302 355.29 443.629 357.176 443.851 359.856C444.147 363.413 443.901 362.264 443.659 365.207C442.831 375.308 436.008 388.793 425.24 386.453C422.242 385.798 419.443 383.806 417.514 380.955C414.963 377.238 413.268 371.055 413.55 366.847C412.89 360.226 415.851 349.945 420.228 346.233Z" fill="#F2814F"/>
<path d="M221.139 324.677C225.358 314.235 232.662 308.887 242.419 304.336C248.96 301.284 263.096 299.723 265.974 307.873C270.553 320.838 257.673 333.936 247.689 338.637C240.937 343.692 224.403 344.232 221.187 334.362C219.981 330.805 220.528 328.246 221.139 324.677Z" fill="#E84A64"/>
<path d="M272.993 351.808C287.885 343.145 305.512 347.065 299.366 367.645C299.16 368.332 298.848 369.182 298.493 369.805C294.313 381.146 280.9 389.51 268.89 388.557C263.867 387.693 260.144 385.779 258.011 380.992C257.279 376.724 257.529 373.954 258.408 369.77C260.827 364.044 263.335 359.66 264.589 358.094C265.676 356.737 266.156 355.902 267.724 354.963C269.65 353.535 270.912 352.974 272.993 351.808Z" fill="#F2814F"/>
<path d="M257.817 241.262C256.485 233.778 262.185 226.181 266.85 220.944C273.605 213.36 286.423 205.357 297.027 208.324C298.569 208.903 299.004 209.217 300.264 210.32C302.485 212.575 303.356 215.923 303.289 219.025C303.037 230.601 291.728 242.563 281.626 246.905C278.58 248.679 270.038 251.231 266.632 250.019C262.19 249.112 258.063 246.095 257.817 241.262Z" fill="#B51783"/>
<path d="M266.361 258.012C271.062 256.368 275.827 255.267 280.793 256.542C288.5 259.763 287.699 268.824 285.046 275.3C280.771 285.738 266.167 295.756 254.818 295.717C249.493 296.496 242.734 292.275 242.43 286.508C241.952 282.882 242.562 279.196 244.182 275.915C248.083 267.925 257.977 260.895 266.361 258.012Z" fill="#B51783"/>
<path d="M426.872 35.052C429.57 34.8284 432.634 34.7911 434.852 36.3864C444.331 43.2048 439.895 58.2898 434.716 66.1667C429.891 73.5055 424.458 77.999 416.252 79.8747C388.821 81.0568 406.607 39.8201 426.872 35.052Z" fill="#860080"/>
<path d="M478.56 3.13608C481.836 2.86511 485.557 2.81995 488.251 4.75319C499.764 13.0162 494.376 31.2971 488.086 40.8429C482.226 49.7365 475.628 55.182 465.661 57.4552C432.344 58.8877 453.946 8.91439 478.56 3.13608Z" fill="#860080"/>
<path d="M247.433 188.313C250.92 187.007 254.323 186.236 257.899 187.909C258.231 188.061 258.556 188.228 258.874 188.406C267.274 194.883 258.327 209.253 253.36 215.125C247.255 222.343 237.813 228.956 228.128 229.879C223.508 230.319 219.561 228.644 218.557 223.741C217.426 218.754 219.679 213.856 222.095 209.673C222.515 208.212 225.721 204.193 226.723 202.98C232.461 196.031 239.041 191.529 247.433 188.313Z" fill="#B51783"/>
<path d="M383.41 95.2105C382.058 98.2643 378.138 102.579 375.599 104.943C370.702 109.5 364.442 113.311 357.526 113.251C355.849 113.298 352.512 111.91 351.659 110.376C344.434 97.3882 357.22 79.8274 367.341 72.3068C370.991 69.5942 374.995 67.6845 378.854 68.2232C392.777 68.4036 388.985 87.6121 383.41 95.2105Z" fill="#860080"/>
<path d="M325.367 135.429C321.958 139.486 317.876 142.95 313.391 145.785C309.406 148.885 297.815 151.147 295.549 145.244C289.978 130.725 305.305 112.325 317.353 106.018C323.055 103.033 329.747 102.363 332.365 108.789C333.953 112.689 333.548 120.013 331.94 123.927C330.967 126.91 327.521 133.201 325.367 135.429Z" fill="#860080"/>
<path d="M201.973 267.604C199.785 265.678 199.046 262.654 199.38 259.855C200.949 246.69 226.796 230.367 238.506 234.141C245.535 238.167 242.618 246.212 239.349 251.736C235.788 257.752 227.846 264.364 221.171 266.419C217.145 268.618 205.547 271.153 201.973 267.604Z" fill="#B51783"/>
<path d="M170.286 322.908C175.041 315.863 190.533 310.993 198.628 312.681C211.649 313.953 207.657 328.032 201.439 334.909C195.361 340.958 188.372 344.133 179.732 344.239C176.362 344.281 171.492 343.476 169.27 340.734C163.934 334.956 166.059 328.465 170.286 322.908Z" fill="#E84A64"/>
<path d="M199.158 369.719C201.416 356.726 218.473 349.224 230.468 351.248C243.457 353.439 240.461 368.559 233.348 374.853C227.01 382.9 209.932 386.396 202.256 378.417C200.466 376.269 198.097 372.649 199.158 369.719Z" fill="#F2814F"/>
<path d="M253.072 145.901C253.37 145.648 253.677 145.406 253.993 145.176C258.363 142.007 266.677 139.541 270.321 144.914C271.525 146.44 271.604 148.182 271.677 150.098C271.436 157.412 269.119 162.329 264.227 167.8C262.484 170.755 257.691 174.928 254.788 177.102C243.02 185.917 227.764 186.029 235.36 166.779C238.194 159.598 246.353 150.465 253.072 145.901Z" fill="#860080"/>
<path d="M188.615 304.983C187.141 303.8 186.174 302.335 185.434 300.638C181.015 290.497 193.585 280.613 201.745 277.275C207.504 275.036 216.213 272.423 222.245 274.701C228.41 277.03 226.089 285.63 224.236 290.084C223.579 291.208 223.193 291.922 222.384 292.93C217.329 299.085 210.45 304.177 202.489 305.684C198.055 306.753 192.732 307.195 188.615 304.983Z" fill="#E84A64"/>
<path d="M315.403 403.857C337.282 402.428 330.542 435.596 305.694 439.286C281.652 439.967 293.789 406.699 315.403 403.857Z" fill="#F2814F"/>
<path d="M312.996 405.767C316.16 405.455 321.176 405.164 323.502 407.439C329.062 412.875 325.783 419.209 321.879 423.805C321.654 424.855 321.56 426.36 321.457 427.459C318.419 431.621 312.47 434.853 307.527 436.065C304.487 436.546 301.372 436.114 298.579 434.823C284.965 428.485 303.156 408.541 312.996 405.767Z" fill="#F2814F"/>
<path d="M327.357 455.084C346.033 449.048 345.811 474.664 324.95 483.019C304.277 489.006 309.149 462.084 327.357 455.084Z" fill="#F2814F"/>
<path d="M325.598 457.02C328.282 456.071 332.569 454.714 334.965 455.834C340.691 458.51 338.927 463.856 336.328 468.085C336.311 468.898 336.484 470.012 336.581 470.833C334.658 474.548 330.059 478.253 325.991 480.263C323.444 481.307 320.677 481.704 318.044 481.405C305.201 479.914 317.559 461.282 325.598 457.02Z" fill="#F2814F"/>
<path d="M363.502 403.961C382.418 387.713 396.488 418.714 376.262 438.809C354.936 455.958 345.685 421.149 363.502 403.961Z" fill="#F2814F"/>
<path d="M362.487 407.141C365.158 404.707 369.517 401.012 373.004 401.211C381.336 401.689 382.222 408.985 381.486 415.332C381.921 416.322 382.751 417.582 383.326 418.526C383.109 423.93 379.694 430.607 375.962 434.985C373.506 437.467 370.426 439.275 367.116 440.179C350.95 444.549 355.275 416.142 362.487 407.141Z" fill="#F2814F"/>
<path d="M368.042 462.333C377.391 446.174 394.552 460.406 385.2 479.342C374.382 496.848 359.682 478.701 368.042 462.333Z" fill="#F2814F"/>
<path d="M368.087 464.607C369.374 462.239 371.54 458.546 374.02 457.514C379.947 455.047 382.294 459.199 383.284 463.31C383.822 463.769 384.699 464.262 385.324 464.647C386.453 468.011 385.651 473.21 384.084 477.112C382.959 479.437 381.238 481.558 379.142 483.204C368.899 491.216 365.187 472.477 368.087 464.607Z" fill="#F2814F"/>
<path d="M417.175 406.263C431.579 387.537 451.863 414.774 437.066 437.399C420.567 457.394 404.026 425.702 417.175 406.263Z" fill="#F2814F"/>
<path d="M416.915 409.474C418.918 406.696 422.248 402.427 425.612 402.028C433.653 401.073 436.118 407.894 436.826 414.084C437.46 414.955 438.531 416.019 439.288 416.824C440.282 422.024 438.512 428.981 435.93 433.796C434.143 436.583 431.612 438.832 428.66 440.256C414.237 447.169 412.046 419.295 416.915 409.474Z" fill="#F2814F"/>
<path d="M421.748 464.822C425.635 449.559 445.962 457.339 442.907 474.868C438.05 491.557 418.848 480.035 421.748 464.822Z" fill="#F2814F"/>
<path d="M422.473 466.666C422.966 464.449 423.881 460.953 425.891 459.558C430.692 456.225 434.135 459.088 436.296 462.22C436.937 462.475 437.906 462.681 438.606 462.856C440.673 465.348 441.486 469.766 441.193 473.298C440.839 475.445 439.867 477.558 438.402 479.368C431.229 488.186 422.126 473.732 422.473 466.666Z" fill="#F2814F"/>
<path d="M182.872 221.703C187.077 219.976 190.711 218.835 195.261 219.7C200.149 221.311 199.635 226.784 197.897 230.614C192.74 241.975 181.835 250.222 169.765 253.017C168.435 253.325 163.827 253.534 162.667 253.014C154.79 252.085 155.726 245.833 158.708 240.384C159.789 238.03 161.887 235.809 163.637 233.924C168.588 228.874 176.164 223.968 182.872 221.703Z" fill="#B51783"/>
<path d="M233.775 431.27C227.585 422.19 236.111 409.838 244.466 405.535C250.37 402.493 254.766 401.665 261.209 403.588C263.058 403.899 263.948 404.428 265.026 406.051C267.294 409.463 267.423 412.844 266.61 416.768C264.255 428.135 250.853 437.011 239.476 434.82C237.584 434.455 234.872 432.931 233.775 431.27Z" fill="#F2814F"/>
<path d="M259.738 477.172C253.163 471.605 259.072 461.016 265.849 456.367C270.638 453.083 274.387 451.691 280.277 451.957C281.937 451.857 282.784 452.086 283.935 453.086C286.354 455.188 286.895 457.649 286.68 460.676C286.056 469.443 275.433 478.348 265.184 478.764C263.48 478.833 260.91 478.197 259.738 477.172Z" fill="#F2814F"/>
<path d="M182.166 199.021C186.671 192.493 206.487 175.076 214.87 181C215.958 181.767 216.689 182.94 216.895 184.254C219.479 199.81 187.064 225.534 178.181 214.652C175.324 210.425 179.473 202.642 182.166 199.021Z" fill="#860080"/>
<path d="M144.258 366.556C146.817 360.013 154.398 354.812 160.771 352.396C164.336 351.045 169.349 351.208 173.136 351.259C184.445 352.117 184.756 364.311 178.02 370.55C173.958 375.709 168.011 379.348 161.436 380.13C156.077 380.766 149.064 378.999 145.792 374.484C143.833 372.048 143.153 369.491 144.258 366.556Z" fill="#F2814F"/>
<path d="M149.608 210.447C169.08 208.834 149.263 239.91 124.754 243.085C123.142 243.076 120.625 242.989 119.212 242.204C115.265 240.012 117.018 233.799 119.012 230.948C125.935 221.048 137.869 213.14 149.608 210.447Z" fill="#E84A64"/>
<path d="M173.885 256.659C180.739 255.923 186.929 256.322 183.456 265.281C181.455 269.941 176.446 276.091 171.657 277.95C166.432 281.989 150.906 287.819 145.717 281.296C143.661 278.938 143.403 275.678 145.207 273.121C151.256 264.545 164.096 258.983 173.885 256.659Z" fill="#E84A64"/>
<path d="M184.185 401.161C188.768 398.162 194.368 397.136 199.719 398.313C204.886 399.405 207.911 402.462 207.765 407.839C207.911 419.77 188.81 431.293 177.72 423.633C170.466 417.217 177.326 404.986 184.185 401.161Z" fill="#F2814F"/>
<path d="M206.212 448.133C209.779 445.034 214.516 443.175 219.351 442.977C224.015 442.754 227.092 444.391 227.735 448.353C229.572 457.05 214.563 469.257 203.793 465.849C196.547 462.591 200.777 452.288 206.212 448.133Z" fill="#F2814F"/>
<path d="M156.375 288.465C158.258 287.675 162.793 288.296 164.531 289.113C168.858 291.192 167.84 296.898 165.865 300.292C162.209 306.574 154.851 310.699 148.045 312.635C144.557 313.627 135.645 314.485 132.96 311.903C126.885 308.58 130.592 302.199 134.326 298.635C136.109 296.35 141.978 292.916 144.832 291.883C148.818 290.433 152.173 289.199 156.375 288.465Z" fill="#E84A64"/>
<path d="M107.788 202.021C118.38 198.143 121.889 202.883 116.552 212.51C115.908 213.65 115.223 214.767 114.5 215.86C109.943 221.474 104.228 225.315 97.501 227.862C94.2604 229.723 87.7944 231.925 84.4773 229.393C83.4471 228.598 82.7814 227.421 82.6328 226.129C82.2015 222.649 84.7195 219.762 86.7079 217.235C92.8231 209.734 98.7151 205.27 107.788 202.021Z" fill="#F2814F"/>
<path d="M31.7253 253.169C30.5701 240.131 53.4542 224.905 63.1693 229.786C63.9017 230.284 64.4561 230.721 64.6315 231.65C65.3305 235.353 63.5018 239.58 61.4112 242.548C56.6712 249.278 48.811 254.593 40.6975 256.143C38.3576 256.589 35.3841 256.813 33.4245 255.314C32.5422 254.64 32.0225 254.239 31.7253 253.169Z" fill="#F2814F"/>
<path d="M133.506 245.499C150.79 241.567 136.417 268.218 115.652 270.129C112.981 270.419 109.28 271.061 106.839 270.03C103.838 268.762 102.803 265.176 104.703 262.537C110.372 254.664 124.477 247.611 133.506 245.499Z" fill="#E84A64"/>
<path d="M137.29 319.565C140.942 319.462 144.58 319.12 147.441 321.864C151.715 325.965 148.086 331.555 144.134 334.138C141.257 336.858 135.354 339.192 131.531 339.982C126.929 341.449 118.834 341.719 114.934 338.548C107.536 331.483 124.869 321.833 130.499 320.473C132.168 319.698 135.4 319.638 137.29 319.565Z" fill="#E84A64"/>
<path d="M221.926 142.804C224.161 143.005 227.854 143.73 227.701 146.327C226.957 158.889 209.606 170.548 199.71 172.483C190.137 173.071 194.663 163.456 197.908 159.253C203.288 152.286 213.019 144.2 221.926 142.804Z" fill="#860080"/>
<path d="M280.538 109.534C282.563 109.767 285.9 110.51 285.701 112.865C284.74 124.256 268.717 134.446 259.686 135.978C250.979 136.294 255.31 127.665 258.352 123.923C263.397 117.719 272.417 110.599 280.538 109.534Z" fill="#860080"/>
<path d="M129.874 394.876C135.326 391.832 145.72 387.16 150.542 393.522C155.376 401.204 146.913 410.065 139.959 412.954C132.813 416.116 124.042 415.738 122.969 406.392C120.163 400.5 124.998 396.791 129.874 394.876Z" fill="#F2814F"/>
<path d="M158.885 440.21C163.204 436.905 171.601 431.432 176.718 435.13C182.034 439.793 175.923 447.948 170.271 451.437C164.492 455.163 156.788 456.622 154.513 449.999C151.221 446.244 154.906 442.575 158.885 440.21Z" fill="#F2814F"/>
<path d="M97.8466 235.107C100.313 234.507 103.104 235.569 103.043 238.525C102.843 248.208 91.5343 255.38 83.6382 258.538C79.9859 260.341 70.6361 263.92 68.4028 258.808C67.4485 251.171 73.8956 245.776 79.7523 242.14C85.501 238.891 91.1678 235.773 97.8466 235.107Z" fill="#F2814F"/>
<path d="M146.746 194.915C148.661 189.343 158.469 181.229 163.763 178.685C172.356 174.556 175.832 178.683 172.203 187.494C169.503 194.048 152.565 211.765 145.124 205.428C143.084 201.335 144.796 198.645 146.746 194.915Z" fill="#860080"/>
<path d="M118.771 350.188C127.498 348.718 129.487 357.132 124.617 362.816C121.693 366.228 117.657 368.007 113.5 369.453C107.962 370.878 99.6825 371.523 96.1946 366.047C92.7164 354.788 111.048 350.676 118.771 350.188Z" fill="#F2814F"/>
<path d="M104.836 277.865C108.489 275.678 121.657 272.129 125.062 274.668C126.184 276.683 126.515 277.611 125.921 279.964C124.293 286.409 109.932 294.755 103.818 294.216C101.996 294.695 96.6626 294.898 95.2017 294.019C86.3728 288.71 100.399 279.324 104.836 277.865Z" fill="#E84A64"/>
<path d="M101.89 300.442C104.708 299.967 112.082 298.827 112.456 304.182C113.151 314.138 81.2296 323.615 80.4186 313.877C80.2471 305.632 95.4033 301.479 101.89 300.442Z" fill="#E84A64"/>
<path d="M80.9847 387.224C90.8857 377.202 111.501 382.573 97.3367 397.401C94.2493 400.634 84.4105 403.133 80.6326 400.313C75.6478 397.001 77.254 390.861 80.9847 387.224Z" fill="#F2814F"/>
<path d="M117.326 429.655C126.89 422.818 144.895 428.045 131.178 438.189C128.188 440.401 119.227 441.662 116.061 439.342C111.853 436.585 113.733 432.128 117.326 429.655Z" fill="#F2814F"/>
<path d="M44.1691 264.195C44.8033 264.149 45.6536 264.009 46.0823 264.627C52.3801 273.696 28.0861 288.191 21.7045 284.44C20.7535 283.862 19.8961 283.138 19.9334 281.923C20.2521 271.508 35.6354 264.87 44.1691 264.195Z" fill="#F2814F"/>
<path d="M62.1541 273.042C66.2861 268.997 79.1089 263.937 84.8897 264.87C85.6614 265.442 86.5116 266.147 86.5705 267.175C86.903 272.989 79.4754 278.093 75.045 280.531C71.4124 282.529 67.7758 283.553 63.7597 284.059C55.1114 285.025 56.8093 276.359 62.1541 273.042Z" fill="#F2814F"/>
<path d="M84.6403 325.112C95.8405 323.164 99.0968 330.809 89.7528 336.261C84.9584 338.714 75.3775 341.723 70.7585 337.922C63.6255 331.715 79.7994 325.489 84.6403 325.112Z" fill="#F2814F"/>
<path d="M66.7279 289.613C68.9363 289.304 71.845 289.274 73.0362 291.393C73.3465 298.442 60.7554 302.384 55.1736 303.131C52.9672 303.269 50.194 303.243 48.845 301.317C48.3862 294.585 61.3589 290.293 66.7279 289.613Z" fill="#F2814F"/>
<path d="M69.0639 349.17C79.8531 347.46 78.7011 356.653 71.6892 360.207C68.3256 361.401 63.8925 362.323 60.3849 361.266C56.9565 360.181 53.5504 357.853 56.9048 354.171C59.9562 350.82 64.6878 349.568 69.0639 349.17Z" fill="#F2814F"/>
<path d="M38.9662 379.093C44.8177 370.262 61.1363 374.049 53.4639 382.392C48.8122 389.193 34.6673 387.584 38.9662 379.093Z" fill="#F2814F"/>
<path d="M22.077 296.55C24.6636 295.862 28.5594 294.347 30.2009 297.202C30.3259 298.671 30.0438 299.479 29.208 300.76C26.766 303.371 24.3213 304.854 20.8105 306.295C18.8253 307.11 11.0018 309.431 10.4821 305.452C10.4179 304.963 12.1995 302.558 12.714 302.167C15.3583 298.893 18.2526 297.934 22.077 296.55Z" fill="#F2814F"/>
<path d="M51.9547 311.501C54.1938 310.914 58.7499 309.655 59.627 313.611C61.2024 320.711 34.761 325.587 40.4521 317.278C42.0648 314.31 48.8646 312.38 51.9547 311.501Z" fill="#F2814F"/>
<path d="M41.7742 331.117C43.7339 331.107 46.1163 331.133 46.833 333.224C45.9448 337.345 39.7975 339.066 36.18 339.62C34.2046 339.536 31.8438 339.44 31.0675 337.385C31.8916 333.773 38.4086 331.533 41.7742 331.117Z" fill="#F2814F"/>
<path d="M13.7481 319.665C15.2385 319.623 16.3433 319.511 17.5241 320.445C18.6237 323.832 11.7126 326.412 9.16776 327.217C8.81367 327.216 8.45958 327.212 8.10548 327.205C6.62495 327.171 6.07907 327.251 5.03969 326.18C4.41985 322.996 11.2282 320.226 13.7481 319.665Z" fill="#F2814F"/>
<path d="M29.7054 350.088C30.8351 350.148 31.7037 350.181 32.476 351.022C32.7032 353.738 28.1005 354.918 26.029 355.157C24.6852 354.924 23.8114 354.783 22.9161 353.761C22.6228 351.087 27.7111 350.324 29.7054 350.088Z" fill="#F2814F"/>
</svg>
